#N canvas 1 86 1366 697 10;
#X obj 142 133 ctlin 102;
#X obj 213 133 ctlin 103;
#X obj 284 133 ctlin 104;
#X obj 355 133 ctlin 105;
#X obj 426 133 ctlin 106;
#X obj 497 133 ctlin 107;
#X obj 568 133 ctlin 108;
#X obj 639 133 ctlin 109;
#X obj 709 133 ctlin 110;
#X obj 780 133 ctlin 111;
#X obj 851 133 ctlin 112;
#X obj 922 133 ctlin 113;
#X obj 993 133 ctlin 114;
#X obj 213 178 outlet;
#X obj 284 178 outlet;
#X obj 355 178 outlet;
#X obj 426 178 outlet;
#X obj 497 178 outlet;
#X obj 568 178 outlet;
#X obj 639 178 outlet;
#X obj 709 178 outlet;
#X obj 780 178 outlet;
#X obj 851 178 outlet;
#X obj 922 178 outlet;
#X obj 993 178 outlet;
#X obj 142 178 outlet;
#X obj 142 155 / 127;
#X obj 213 155 / 127;
#X obj 284 155 / 127;
#X obj 355 155 / 127;
#X obj 426 155 / 127;
#X obj 497 155 / 127;
#X obj 568 155 / 127;
#X obj 639 155 / 127;
#X obj 709 155 / 127;
#X obj 780 155 / 127;
#X obj 851 155 / 127;
#X obj 922 155 / 127;
#X obj 993 155 / 127;
#X connect 0 0 26 0;
#X connect 1 0 27 0;
#X connect 2 0 28 0;
#X connect 3 0 29 0;
#X connect 4 0 30 0;
#X connect 5 0 31 0;
#X connect 6 0 32 0;
#X connect 7 0 33 0;
#X connect 8 0 34 0;
#X connect 9 0 35 0;
#X connect 10 0 36 0;
#X connect 11 0 37 0;
#X connect 12 0 38 0;
#X connect 26 0 25 0;
#X connect 27 0 13 0;
#X connect 28 0 14 0;
#X connect 29 0 15 0;
#X connect 30 0 16 0;
#X connect 31 0 17 0;
#X connect 32 0 18 0;
#X connect 33 0 19 0;
#X connect 34 0 20 0;
#X connect 35 0 21 0;
#X connect 36 0 22 0;
#X connect 37 0 23 0;
#X connect 38 0 24 0;
